<svg width="482" height="482" viewBox="0 0 482 482" fill="none" xmlns="http://www.w3.org/2000/svg">
<rect width="482" height="482" fill="white"/>
<rect x="31.4463" y="31" width="207" height="207" rx="100" fill="#E8C547"/>
<path d="M152.824 113.008C159.551 113.468 166.748 116.76 172.872 122.089C173.259 122.591 173.644 123.11 174.024 123.646C174.033 123.658 174.043 123.671 174.052 123.684L175.389 125.553V125.554L176.883 127.671C176.895 127.689 176.908 127.707 176.921 127.725L178.513 129.959V129.96C180.239 132.385 181.961 134.817 183.694 137.266C183.699 137.273 183.705 137.28 183.71 137.287L187.328 142.376C190.492 146.826 193.652 151.281 196.814 155.742L196.815 155.744C199.805 159.959 202.798 164.17 205.786 168.375L206.522 169.411V169.412C212.864 178.337 219.201 187.266 225.535 196.199C230.149 202.706 239.05 204.464 245.791 200.199L248.739 198.332L248.74 198.333C250.044 197.511 251.348 196.689 252.652 195.867C252.661 195.861 252.671 195.855 252.68 195.85L254.596 194.637C259.193 191.743 263.836 189.192 268.707 186.91C268.722 186.903 268.736 186.897 268.751 186.89L271.335 185.667C309.491 168.03 355.394 160.312 393.584 173.216C398.673 175.402 404.559 181.558 410.757 192.142C416.784 202.433 421.463 213.918 425.736 223.736H425.737C439.41 256.304 445.145 291.64 433.226 322.091C420.27 353.354 394.321 377.649 362.399 391.394C337.457 401.554 312.143 406.23 286.616 402.692L286.546 402.683L284.28 402.395C282.078 402.129 279.907 401.908 277.747 401.713H277.748C271.613 401.101 265.472 400.089 258.762 398.971L258.737 398.966L254.599 398.284H254.6C250.129 397.547 245.656 396.802 241.172 396.055H241.168L236.513 395.28C229.234 394.069 221.956 392.856 214.68 391.638V391.637C206.283 390.231 197.885 388.838 189.487 387.454H189.488C183.001 386.384 176.514 385.304 170.026 384.215H170.025C166.141 383.563 162.244 382.914 158.339 382.275H158.34C154.733 381.685 151.125 381.081 147.514 380.466L147.488 380.462L144.461 379.961C143.495 379.804 142.537 379.649 141.592 379.497C137.756 378.834 135.979 378.4 134.691 377.872C134.183 377.663 133.68 377.408 133.105 376.977C132.022 373.414 132.802 368.329 135.63 358.653C140.796 342.28 149.417 330.618 163.469 322.976C174.394 318.149 185.956 318.028 200.309 320.479C206.288 321.501 212.294 318.82 215.526 313.688C218.759 308.555 218.582 301.98 215.078 297.028L213.589 294.925C201.621 278.014 189.667 261.094 177.728 244.164L169.053 231.872C166.159 227.775 163.262 223.678 160.362 219.583C155.319 212.461 150.286 205.333 145.263 198.199L145.262 198.198C143.928 196.304 142.591 194.408 141.251 192.512L137.223 186.823C134.718 183.295 132.222 179.755 129.732 176.206L129.72 176.188L128.312 174.195C127.842 173.532 127.37 172.869 126.897 172.206C118.789 160.835 115.407 151.854 116.727 140.871C121.008 123.985 134.818 113.357 152.824 113.008Z" fill="white" stroke="black" stroke-width="30" stroke-linejoin="round"/>
</svg>
