<svg width="1066" height="482" viewBox="0 0 1066 482" fill="none" xmlns="http://www.w3.org/2000/svg">
<path d="M598.4 290.2L599 312.8C591.8 314.267 585.067 315.4 578.8 316.2C572.533 317 566.533 317.4 560.8 317.4C549.467 317.4 540.4 316 533.6 313.2C526.8 310.4 521.467 305.933 517.6 299.8C513.733 293.667 511.067 286.467 509.6 278.2C508.133 269.933 507.4 259.533 507.4 247C507.4 233.8 508.2 222.733 509.8 213.8C511.533 204.867 514.4 197.667 518.4 192.2C522.4 186.6 527.733 182.6 534.4 180.2C541.067 177.8 549.4 176.6 559.4 176.6C571 176.6 584.267 178.4 599.2 182L598.4 204C585.2 202 574.267 201 565.6 201C561.2 201 557.467 201.267 554.4 201.8C551.467 202.333 548.933 203.267 546.8 204.6C544.8 205.8 543.133 207.533 541.8 209.8C540.6 211.933 539.533 214.6 538.6 217.8C537.667 221.133 536.933 225.533 536.4 231C536 236.467 535.8 243.2 535.8 251.2C535.8 259.067 536.2 265.667 537 271C537.8 276.333 539.2 280.667 541.2 284C543.333 287.2 546.2 289.533 549.8 291C553.4 292.333 557.933 293 563.4 293C569 293 574.667 292.8 580.4 292.4C586.133 291.867 592.133 291.133 598.4 290.2ZM699.794 276.4H640.994C641.127 282.533 642.727 287 645.794 289.8C648.86 292.467 653.394 293.8 659.394 293.8C671.794 293.8 682.86 293.4 692.594 292.6L698.194 292L698.594 311.8C683.527 315.533 669.66 317.4 656.994 317.4C641.927 317.4 630.994 313.4 624.194 305.4C617.394 297.4 613.994 284.4 613.994 266.4C613.994 230.533 628.727 212.6 658.194 212.6C687.26 212.6 701.794 227.667 701.794 257.8L699.794 276.4ZM640.794 256H675.394C675.394 248 674.127 242.467 671.594 239.4C669.194 236.2 664.794 234.6 658.394 234.6C651.994 234.6 647.46 236.267 644.794 239.6C642.26 242.8 640.927 248.267 640.794 256ZM747.747 315H720.947V215H747.547V225.6C759.014 218.933 769.68 214.6 779.547 212.6V239.6C774.08 240.667 769.014 241.8 764.347 243C759.814 244.2 755.614 245.4 751.747 246.6L747.747 248V315ZM876.161 276.4H817.361C817.494 282.533 819.094 287 822.161 289.8C825.228 292.467 829.761 293.8 835.761 293.8C848.161 293.8 859.228 293.4 868.961 292.6L874.561 292L874.961 311.8C859.894 315.533 846.028 317.4 833.361 317.4C818.294 317.4 807.361 313.4 800.561 305.4C793.761 297.4 790.361 284.4 790.361 266.4C790.361 230.533 805.094 212.6 834.561 212.6C863.628 212.6 878.161 227.667 878.161 257.8L876.161 276.4ZM817.161 256H851.761C851.761 248 850.494 242.467 847.961 239.4C845.561 236.2 841.161 234.6 834.761 234.6C828.361 234.6 823.828 236.267 821.161 239.6C818.628 242.8 817.294 248.267 817.161 256ZM945.714 212.6C952.781 212.6 958.847 213.533 963.914 215.4C968.981 217.133 973.114 220.067 976.314 224.2C979.647 228.2 982.114 233.6 983.714 240.4C985.314 247.067 986.114 255.333 986.114 265.2C986.114 275.067 985.247 283.333 983.514 290C981.781 296.667 978.914 302.067 974.914 306.2C971.047 310.2 965.914 313.067 959.514 314.8C953.247 316.533 945.514 317.4 936.314 317.4C933.381 317.4 929.314 317.2 924.114 316.8C918.914 316.533 912.514 316.067 904.914 315.4L897.314 314.6V175H924.114V218C932.781 214.4 939.981 212.6 945.714 212.6ZM936.314 293.4C940.714 293.4 944.381 292.933 947.314 292C950.247 290.933 952.581 289.267 954.314 287C956.047 284.6 957.247 281.533 957.914 277.8C958.581 273.933 958.914 269.2 958.914 263.6C958.914 245.6 953.314 236.6 942.114 236.6C936.514 236.6 931.447 237.267 926.914 238.6L924.114 239.2V292.6C927.181 292.867 929.714 293.067 931.714 293.2C933.714 293.333 935.247 293.4 936.314 293.4Z" fill="black"/>
<rect x="31.4463" y="31" width="207" height="207" rx="100" fill="#E8C547"/>
<path d="M152.824 113.008C159.551 113.468 166.748 116.76 172.872 122.089C173.259 122.591 173.644 123.11 174.024 123.646C174.033 123.658 174.043 123.671 174.052 123.684L175.389 125.553V125.554L176.883 127.671C176.895 127.689 176.908 127.707 176.921 127.725L178.513 129.959V129.96C180.239 132.385 181.961 134.817 183.694 137.266C183.699 137.273 183.705 137.28 183.71 137.287L187.328 142.376C190.492 146.826 193.652 151.281 196.814 155.742L196.815 155.744C199.805 159.959 202.798 164.17 205.786 168.375L206.522 169.411V169.412C212.864 178.337 219.201 187.266 225.535 196.199C230.149 202.706 239.05 204.464 245.791 200.199L248.739 198.332L248.74 198.333C250.044 197.511 251.348 196.689 252.652 195.867C252.661 195.861 252.671 195.855 252.68 195.85L254.596 194.637C259.193 191.743 263.836 189.192 268.707 186.91C268.722 186.903 268.736 186.897 268.751 186.89L271.335 185.667C309.491 168.03 355.394 160.312 393.584 173.216C398.673 175.402 404.559 181.558 410.757 192.142C416.784 202.433 421.463 213.918 425.736 223.736H425.737C439.41 256.304 445.145 291.64 433.226 322.091C420.27 353.354 394.321 377.649 362.399 391.394C337.457 401.554 312.143 406.23 286.616 402.692L286.546 402.683L284.28 402.395C282.078 402.129 279.907 401.908 277.747 401.713H277.748C271.613 401.101 265.472 400.089 258.762 398.971L258.737 398.966L254.599 398.284H254.6C250.129 397.547 245.656 396.802 241.172 396.055H241.168L236.513 395.28C229.234 394.069 221.956 392.856 214.68 391.638V391.637C206.283 390.231 197.885 388.838 189.487 387.454H189.488C183.001 386.384 176.514 385.304 170.026 384.215H170.025C166.141 383.563 162.244 382.914 158.339 382.275H158.34C154.733 381.685 151.125 381.081 147.514 380.466L147.488 380.462L144.461 379.961C143.495 379.804 142.537 379.649 141.592 379.497C137.756 378.834 135.979 378.4 134.691 377.872C134.183 377.663 133.68 377.408 133.105 376.977C132.022 373.414 132.802 368.329 135.63 358.653C140.796 342.28 149.417 330.618 163.469 322.976C174.394 318.149 185.956 318.028 200.309 320.479C206.288 321.501 212.294 318.82 215.526 313.688C218.759 308.555 218.582 301.98 215.078 297.028L213.589 294.925C201.621 278.014 189.667 261.094 177.728 244.164L169.053 231.872C166.159 227.775 163.262 223.678 160.362 219.583C155.319 212.461 150.286 205.333 145.263 198.199L145.262 198.198C143.928 196.304 142.591 194.408 141.251 192.512L137.223 186.823C134.718 183.295 132.222 179.755 129.732 176.206L129.72 176.188L128.312 174.195C127.842 173.532 127.37 172.869 126.897 172.206C118.789 160.835 115.407 151.854 116.727 140.871C121.008 123.985 134.818 113.357 152.824 113.008Z" fill="white" stroke="black" stroke-width="30" stroke-linejoin="round"/>
</svg>
